<svg width="100" height="106" viewBox="0 0 100 106" fill="none" xmlns="http://www.w3.org/2000/svg">
<path d="M57.8035 31.0203L47.5 1.02832L10.9827 15.0948L37.4957 48.8679L57.8035 31.0203Z" fill="#0EA5E9"/>
<path d="M47.9769 74.4851L36.052 52.2368L0 67.7838L31.6148 105.579L47.9769 74.4851Z" fill="#0EA5E9"/>
<path d="M34.6821 49.9276L9.48338 17.9854L0 64.5896L34.6821 49.9276Z" fill="#0EA5E9"/>
<path d="M98.8439 46.0603L79.0256 51.9318L69.9422 68.7455L78.4751 89.2956L98.8439 46.0603Z" fill="#0EA5E9"/>
<path d="M67.5503 73L51.906 76.9248L38 102L75 90.8797L67.5503 73Z" stroke="#0EA5E9" stroke-width="3"/>
<path d="M59.7117 30.3918L49.711 0.579102L100 43.3658L78.8558 49.9909L59.7117 30.3918Z" fill="#0EA5E9"/>
<path d="M58.9078 33.146L39.3064 50.8049L50.3494 73.0123L67.4661 68.1962L76.3006 50.8049L58.9078 33.146Z" fill="#0EA5E9"/>
</svg>
